<?xml version="1.0" standalone="no"?>
<!DOCTYPE svg PUBLIC "-//W3C//DTD SVG 20010904//EN"
 "http://www.w3.org/TR/2001/REC-SVG-20010904/DTD/svg10.dtd">
<svg version="1.0" xmlns="http://www.w3.org/2000/svg"
 width="225.000000pt" height="225.000000pt" viewBox="0 0 225.000000 225.000000"
 preserveAspectRatio="xMidYMid meet">
<metadata>
Created by potrace 1.16, written by Peter Selinger 2001-2019
</metadata>
<g transform="translate(0.000000,225.000000) scale(0.100000,-0.100000)"
fill="#000000" stroke="none">
<path d="M506 1719 c-35 -30 -37 -34 -30 -78 4 -25 7 -53 6 -61 -6 -62 1 -317
8 -324 6 -6 11 -28 12 -50 l1 -41 7 45 c7 43 7 42 8 -22 1 -39 -2 -68 -8 -68
-5 0 -17 -11 -26 -25 -16 -25 -16 -26 32 -78 27 -28 53 -54 59 -56 5 -2 18
-15 28 -28 16 -20 27 -23 87 -23 l68 0 73 73 c74 72 74 72 44 74 -17 2 -74 10
-127 20 l-98 16 0 180 0 179 28 -24 c117 -99 276 -248 293 -274 13 -22 22 -60
27 -128 4 -53 4 -96 0 -96 -4 0 -8 -13 -8 -29 0 -27 -3 -30 -37 -33 l-38 -3 0
-50 0 -50 40 -4 c33 -3 21 -7 -63 -21 -64 -11 -111 -25 -123 -35 -21 -20 -25
-55 -8 -88 10 -21 9 -21 -10 2 -26 29 -27 75 -2 100 19 19 79 41 113 41 29 0
30 18 3 36 -17 11 -22 20 -15 24 8 5 7 9 -4 13 -9 4 -16 13 -16 20 0 8 -8 21
-18 31 -18 15 -20 15 -35 -2 -10 -10 -14 -22 -10 -26 4 -4 -1 -12 -11 -18 -15
-8 -16 -12 -5 -19 11 -8 10 -12 -5 -24 -15 -12 -22 -12 -34 -3 -10 9 -11 13
-2 16 7 3 4 13 -11 28 l-22 23 -18 -24 c-11 -13 -16 -30 -13 -38 7 -20 -13
-32 -30 -17 -11 8 -19 4 -36 -20 -15 -21 -17 -30 -8 -30 8 -1 5 -6 -7 -16 -16
-12 -17 -16 -6 -23 11 -7 8 -10 -9 -16 -18 -6 -20 -9 -9 -16 11 -8 10 -12 -5
-24 -11 -8 -18 -16 -15 -18 2 -1 99 -33 214 -71 l210 -69 411 67 c225 36 416
66 424 66 9 0 6 8 -10 25 -22 23 -22 25 -4 25 15 1 12 4 -11 17 -26 14 -27 17
-11 23 16 5 17 7 2 20 -10 7 -15 18 -13 24 3 6 -6 26 -19 45 -19 28 -24 31
-30 18 -8 -23 -26 -21 -42 3 -8 13 -8 20 -2 20 6 0 3 13 -7 30 -9 16 -21 30
-24 30 -4 0 -17 -13 -29 -30 -15 -21 -17 -30 -8 -30 10 0 10 -2 1 -8 -14 -9
-18 -73 -8 -115 9 -34 -11 -84 -39 -99 -21 -11 -21 -11 -3 10 27 29 26 87 0
114 -17 16 -39 22 -100 27 l-78 6 94 5 94 5 -2 80 c-3 83 -11 105 -41 105 -10
0 -20 6 -23 14 -4 10 -24 16 -54 18 -46 3 -48 4 -51 35 -2 17 -9 37 -17 43 -8
6 -53 15 -101 18 l-86 7 -22 77 c-13 42 -34 92 -49 111 -28 37 -302 277 -316
277 -14 0 -163 137 -175 162 -17 35 -49 34 -90 -3z m74 2 c0 -6 -5 -13 -10
-16 -11 -7 45 -95 60 -95 5 0 36 -23 69 -50 33 -28 58 -43 55 -35 -15 37 33 6
167 -110 82 -70 154 -141 166 -162 32 -58 57 -164 41 -175 -24 -15 -38 -8 -39
20 -1 24 -2 23 -8 -8 -6 -33 -7 -31 -14 25 -5 33 -10 76 -13 95 -3 27 -2 31 5
15 8 -17 10 -17 10 -3 1 19 -15 32 -29 23 -5 -3 -6 -15 -1 -28 5 -13 12 -63
15 -112 l7 -90 -27 65 c-40 97 -65 126 -232 272 -138 119 -153 136 -150 160 3
20 -2 34 -19 50 -13 12 -23 16 -23 10 0 -6 5 -14 10 -17 6 -4 10 -96 10 -245
0 -200 2 -239 15 -243 8 -4 17 -2 20 2 2 5 33 3 67 -5 35 -7 80 -13 101 -14
21 0 37 -3 35 -8 -2 -4 -29 -31 -60 -61 -46 -42 -63 -52 -82 -49 -14 3 -23 1
-20 -3 3 -5 -12 -9 -34 -9 -41 0 -80 29 -67 49 3 7 -3 11 -17 12 -15 0 -34 15
-55 45 -38 51 -40 60 -14 69 10 3 26 14 36 25 17 19 17 26 1 148 -9 71 -16
162 -16 202 0 40 -3 71 -6 67 -3 -3 -5 -65 -5 -136 2 -112 0 -131 -14 -131
-16 0 -16 2 -19 303 -2 115 -1 120 22 138 26 20 62 26 62 10z m758 -664 c6 -7
12 -35 14 -62 l3 -50 75 -3 c44 -2 78 -8 82 -15 4 -7 8 -36 8 -64 l0 -53 -170
0 -170 0 0 114 c0 63 3 121 6 130 8 21 136 23 152 3z"/>
<path d="M1197 993 c-4 -37 -7 -89 -7 -115 0 -48 0 -48 34 -48 26 0 36 5 41
20 6 19 58 54 66 45 2 -2 2 33 -1 78 l-5 82 -61 3 -61 3 -6 -68z"/>
</g>
</svg>
